# xmcd
#
# Track frame offsets: 
#        150
#        23798
#        42915
#        70693
#        103011
#        131589
#        159253
#        215758
#
# Disc length: 3783 seconds
#
# Revision: 0
# Processed by: cddbd v1.5.2PL0 Copyright (c) Steve Scherf et al.
# Submitted via: ExactAudioCopy v0.99pb5
#
DISCID=680ec508
DTITLE=Steve Lukather and Edgar Winter - Live At The North Sea Jazz Fest
DTITLE=ival 2000
DYEAR=2009
DGENRE=Blues
TTITLE0=Smell Yourself
TTITLE1=Texas
TTITLE2=Song For Jeff
TTITLE3=Red House
TTITLE4=Fly Away
TTITLE5=Rock Medley (Johnny B Goode ~ Whole Lotta Shakin' Going On ~ L
TTITLE5=ong Tall Sally)
TTITLE6=Tobacco Road
TTITLE7=Frankenstein
EXTD=
EXTT0=
EXTT1=
EXTT2=
EXTT3=
EXTT4=
EXTT5=
EXTT6=
EXTT7=
PLAYORDER=
